<svg xmlns="http://www.w3.org/2000/svg" viewBox="0 0 800 450" preserveAspectRatio="xMidYMid slice">
  <defs>
    <linearGradient id="me-bg" x1="0" y1="0" x2="0.3" y2="1">
      <stop offset="0" stop-color="#E8EEF3"/>
      <stop offset="1" stop-color="#D4DDE8"/>
    </linearGradient>
  </defs>
  <rect width="800" height="450" fill="url(#me-bg)"/>
  <rect width="800" height="450" fill="#B8CCD8" opacity="0.4"/>
  <!-- Periphery countries -->
  <path d="M649.2 92.9 L659.1 93.0 L672.5 95.5 L678.0 97.0 L690.8 93.1 L696.8 95.5 L702.6 89.9 L713.2 90.1 L715.9 88.4 L717.8 83.4 L725.5 79.2 L735.1 82.0 L733.1 85.7 L738.5 86.3 L736.9 96.5 L743.9 100.5 L750.1 97.9 L758.0 96.7 L769.0 91.3 L781.3 92.2 L799.6 92.2 L802.8 95.7 L792.5 97.1 L783.4 99.3 L763.0 100.7 L744.0 103.2 L733.5 108.6 L737.8 113.7 L739.8 119.8 L730.9 124.9 L731.7 129.5 L726.8 133.9 L709.8 133.5 L716.9 141.6 L705.6 144.7 L698.0 152.0 L699.0 159.3 L692.1 162.7 L685.5 161.6 L671.9 163.2 L669.9 166.6 L656.7 166.6 L646.8 173.4 L646.2 183.8 L623.1 188.9 L610.6 187.8 L607.1 190.4 L596.4 188.9 L578.6 190.7 L548.9 184.5 L565.0 173.5 L563.5 165.7 L550.1 163.6 L548.7 155.9 L542.9 146.2 L550.5 139.5 L542.7 137.7 L547.6 128.9 L554.8 113.7 L573.0 118.3 L586.4 116.7 L590.1 111.2 L604.1 109.4 L614.2 105.7 L617.7 95.9 L632.7 93.6 L635.5 89.2 L643.9 92.5 L649.2 92.9 Z" fill="#C9B99A" stroke="#B8A880" stroke-width="0.5" opacity="0.6"/>
  <path d="M316.2 450.0 L266.0 486.5 L242.8 487.0 L227.0 495.6 L215.6 495.8 L210.8 499.6 L198.6 499.6 L191.4 495.5 L175.2 500.6 L169.9 505.7 L158.1 504.7 L154.1 503.3 L150.0 503.6 L144.4 503.5 L121.9 493.2 L109.5 493.2 L103.4 489.2 L103.4 482.4 L94.2 480.3 L83.7 467.1 L75.5 464.3 L72.5 459.4 L63.4 453.5 L52.5 452.6 L58.6 445.7 L68.0 445.4 L70.7 441.7 L70.4 430.7 L75.7 418.0 L84.1 414.6 L85.9 409.6 L93.5 400.4 L104.3 394.3 L111.4 382.3 L114.3 371.9 L135.0 374.4 L140.6 365.4 L151.3 370.9 L161.7 368.0 L166.0 370.6 L178.3 370.7 L193.7 375.6 L198.3 379.8 L206.2 383.7 L213.5 390.8 L219.6 394.8 L213.3 400.1 L207.3 405.8 L208.7 409.2 L209.0 412.9 L218.9 413.1 L223.2 412.2 L227.2 414.4 L223.3 418.7 L229.8 425.4 L236.4 431.3 L243.2 435.6 L301.3 450.0 L316.2 450.0 Z" fill="#C9B99A" stroke="#B8A880" stroke-width="0.5" opacity="0.6"/>
  <path d="M114.3 371.9 L112.4 367.0 L120.1 349.2 L121.8 341.1 L127.4 337.3 L140.5 335.3 L149.5 328.4 L159.8 342.5 L164.8 353.6 L174.5 359.6 L198.7 371.1 L208.6 378.0 L218.3 385.0 L223.8 389.2 L232.5 392.8 L227.2 395.8 L219.6 394.8 L213.5 390.8 L206.2 383.7 L198.3 379.8 L193.7 375.6 L178.3 370.7 L166.0 370.6 L161.7 368.0 L151.3 370.9 L140.6 365.4 L135.0 374.4 L114.3 371.9 Z" fill="#C9B99A" stroke="#B8A880" stroke-width="0.5" opacity="0.6"/>
  <path d="M219.6 394.8 L227.2 395.8 L232.5 392.8 L236.8 396.6 L236.2 401.7 L226.1 404.6 L233.7 407.9 L227.2 414.4 L223.2 412.2 L218.9 413.1 L209.0 412.9 L208.7 409.2 L207.3 405.8 L213.3 400.1 L219.6 394.8 Z" fill="#C9B99A" stroke="#B8A880" stroke-width="0.5" opacity="0.6"/>
  <path d="M101.7 149.5 L98.6 153.3 L92.2 151.6 L88.5 159.7 L92.9 161.1 L88.3 162.8 L87.6 166.0 L96.0 164.3 L96.4 169.1 L87.5 188.5 L85.8 185.3 L75.9 167.6 L81.0 163.6 L79.8 162.9 L84.5 157.2 L88.1 148.0 L90.6 145.0 L91.2 144.9 L97.1 144.9 L98.7 142.7 L103.5 142.6 L103.8 147.5 L101.3 149.4 L101.7 149.5 Z" fill="#C9B99A" stroke="#B8A880" stroke-width="0.5" opacity="0.6"/>
  <path d="M98.6 153.3 L101.7 149.5 L121.5 154.3 L156.3 141.3 L163.5 156.2 L160.1 158.0 L124.5 164.1 L142.2 176.2 L136.3 178.3 L133.4 182.4 L119.8 184.1 L115.6 188.4 L107.9 192.2 L88.1 190.3 L87.5 188.5 L96.4 169.1 L96.0 164.3 L98.6 160.8 L98.6 153.3 Z" fill="#C9B99A" stroke="#B8A880" stroke-width="0.5" opacity="0.6"/>
  <path d="M103.5 142.6 L98.7 142.7 L97.1 144.9 L91.2 144.9 L97.5 134.9 L106.3 126.4 L106.6 125.9 L114.6 126.6 L117.5 131.3 L107.9 135.9 L103.5 142.6 Z" fill="#C9B99A" stroke="#B8A880" stroke-width="0.5" opacity="0.6"/>
  <path d="M850.5 115.6 L833.3 125.8 L813.5 127.6 L786.5 124.7 L777.8 129.9 L784.1 140.6 L790.2 148.8 L804.6 154.8 L789.5 161.9 L789.7 170.5 L772.4 182.7 L761.3 195.1 L742.7 207.8 L722.1 206.9 L702.5 219.6 L714.1 225.1 L716.1 234.5 L726.1 240.6 L729.7 251.1 L690.5 251.0 L678.7 259.2 L665.7 256.1 L660.4 247.3 L646.6 238.1 L613.8 240.4 L585.0 240.6 L560.0 242.3 L566.7 228.2 L592.3 221.9 L590.8 216.3 L582.3 214.3 L581.8 203.6 L564.8 198.2 L557.7 190.9 L548.9 184.5 L578.6 190.7 L596.4 188.9 L607.1 190.4 L610.6 187.8 L623.1 188.9 L646.2 183.8 L646.8 173.4 L656.7 166.6 L669.9 166.6 L671.9 163.2 L685.5 161.6 L692.1 162.7 L699.0 159.3 L698.0 152.0 L705.6 144.7 L716.9 141.6 L709.8 133.5 L726.8 133.9 L731.7 129.5 L730.9 124.9 L739.8 119.8 L737.8 113.7 L733.5 108.6 L744.0 103.2 L763.0 100.7 L783.4 99.3 L792.5 97.1 L802.8 95.7 L816.0 101.4 L821.2 110.7 L850.5 115.6 Z" fill="#C9B99A" stroke="#B8A880" stroke-width="0.5" opacity="0.6"/>
  <path d="M206.0 567.8 L195.4 557.7 L195.2 513.4 L210.8 499.6 L215.6 495.8 L227.0 495.6 L242.8 487.0 L266.0 486.5 L316.2 450.0 L328.7 439.8 L336.7 432.3 L336.7 426.0 L336.7 413.7 L336.7 408.7 L336.9 408.5 L342.5 408.3 L350.7 406.5 L360.1 405.3 L368.6 401.1 L375.3 401.1 L375.7 404.4 L374.1 411.5 L374.2 417.9 L370.4 422.3 L365.4 435.4 L356.8 449.0 L345.8 464.5 L330.6 482.4 L315.4 496.0 L294.5 512.6 L276.7 522.4 L250.1 534.5 L233.6 543.7 L214.1 558.5 L210.0 564.9 L206.0 567.8 Z" fill="#C9B99A" stroke="#B8A880" stroke-width="0.5" opacity="0.6"/>
  <path d="M101.7 149.5 L101.3 149.4 L103.8 147.5 L103.5 142.6 L107.9 135.9 L117.5 131.3 L114.6 126.6 L106.6 125.9 L105.0 116.6 L109.3 111.6 L114.1 109.0 L118.9 106.3 L119.8 99.5 L125.6 101.9 L145.2 98.5 L154.6 100.8 L169.3 100.8 L189.8 96.2 L199.3 96.4 L219.5 94.5 L210.5 102.1 L200.7 105.1 L202.4 114.0 L195.7 128.7 L156.3 141.3 L121.5 154.3 L101.7 149.5 Z" fill="#C9B99A" stroke="#B8A880" stroke-width="0.5" opacity="0.6"/>
  <path d="M262.6 95.2 L254.1 97.3 L247.9 94.2 L227.2 92.6 L219.5 94.5 L199.3 96.4 L189.8 96.2 L169.3 100.8 L154.6 100.8 L145.2 98.5 L125.6 101.9 L119.8 99.5 L118.9 106.3 L114.1 109.0 L109.3 111.6 L102.8 106.1 L109.5 101.5 L98.7 102.6 L83.8 99.8 L71.6 106.8 L44.6 108.1 L30.2 101.6 L11.0 101.2 L6.9 106.3 L-5.4 107.7 L-22.5 101.2 L-41.9 101.5 L-52.5 89.4 L-65.5 82.6 L-56.8 73.2 L-68.1 67.3 L-48.4 55.7 L-21.0 55.2 L-13.5 46.0 L20.4 47.6 L41.7 39.7 L62.5 36.3 L91.9 36.0 L122.9 44.6 L148.4 49.3 L169.1 47.4 L184.4 48.5 L205.4 42.1 L224.3 41.6 L241.5 47.5 L244.5 51.8 L242.8 57.7 L256.0 60.8 L263.0 64.3 L250.8 67.8 L256.4 81.7 L252.9 85.5 L262.6 95.2 Z" fill="#C9B99A" stroke="#B8A880" stroke-width="0.5" opacity="0.6"/>
  <path d="M-69.0 38.6 L-50.9 34.8 L-35.6 36.4 L-33.5 41.1 L-18.0 45.0 L-21.2 48.0 L-42.4 48.7 L-49.9 52.4 L-64.8 59.0 L-70.3 53.3 L-70.1 50.8 L-65.9 49.4 L-60.4 41.8 L-69.0 38.6 Z" fill="#C9B99A" stroke="#B8A880" stroke-width="0.5" opacity="0.6"/>
  <path d="M400.0 39.1 L407.9 35.1 L428.1 32.5 L440.1 36.0 L452.6 45.5 L461.7 44.9 L481.7 44.7 L478.8 38.6 L494.0 34.4 L508.9 27.4 L532.9 33.8 L534.8 43.5 L541.6 46.0 L560.9 45.4 L566.8 47.6 L575.6 60.2 L595.9 68.6 L607.4 74.3 L626.1 80.2 L649.7 85.4 L649.2 92.9 L643.9 92.5 L635.5 89.2 L632.7 93.6 L617.7 95.9 L614.2 105.7 L604.1 109.4 L590.1 111.2 L586.4 116.7 L573.0 118.3 L554.8 113.7 L553.3 103.5 L540.1 103.0 L519.7 92.3 L505.6 90.9 L485.8 84.8 L473.2 83.7 L465.4 85.9 L453.5 85.6 L440.9 92.5 L425.3 94.9 L422.0 86.3 L424.5 73.6 L410.7 69.4 L415.3 61.1 L403.5 60.4 L407.4 50.2 L424.1 53.1 L439.8 49.3 L426.8 41.9 L421.7 35.0 L407.4 38.1 L405.6 47.0 L400.0 39.1 Z" fill="#C9B99A" stroke="#B8A880" stroke-width="0.5" opacity="0.6"/>
  <path d="M122.1 279.7 L51.5 279.7 L-17.4 279.7 L-88.9 279.7 L-88.9 235.0 L-88.9 191.7 L-94.2 181.9 L-89.6 174.4 L-92.4 169.2 L-85.9 163.4 L-62.3 163.2 L-45.2 166.4 L-27.6 170.0 L-19.3 171.9 L-5.6 168.0 L1.7 164.5 L17.4 163.5 L30.0 165.0 L34.8 171.1 L39.0 167.1 L53.2 170.0 L67.1 170.7 L75.9 167.6 L85.8 185.3 L87.5 188.5 L82.5 193.4 L78.7 202.6 L73.9 208.9 L69.7 211.0 L63.8 207.1 L55.8 201.7 L43.1 184.3 L41.2 185.3 L48.6 198.2 L59.5 210.4 L73.0 229.4 L79.5 236.0 L85.3 242.8 L101.2 256.3 L97.7 258.4 L98.3 266.3 L118.9 277.2 L122.1 279.7 Z" fill="#C9B99A" stroke="#B8A880" stroke-width="0.5" opacity="0.6"/>
  <path d="M391.1 316.2 L405.0 336.3 L410.8 344.8 L398.0 348.0 L394.5 353.5 L394.1 357.6 L376.4 362.7 L348.0 368.4 L332.1 377.0 L324.2 377.7 L318.9 376.9 L308.5 382.0 L297.2 384.3 L282.3 385.0 L277.8 385.7 L273.9 388.9 L269.2 389.8 L266.5 392.8 L257.7 392.6 L252.0 394.2 L239.7 393.6 L235.1 386.5 L235.6 379.9 L232.7 376.3 L229.2 367.3 L224.1 362.3 L227.7 361.7 L225.8 356.1 L228.0 353.8 L227.2 348.5 L235.0 344.6 L233.2 339.5 L237.9 333.5 L245.2 336.6 L250.0 335.6 L270.5 335.3 L273.7 336.5 L291.0 337.7 L297.7 337.1 L302.2 341.2 L310.5 339.1 L323.3 326.3 L339.9 320.9 L391.1 316.2 Z" fill="#C9B99A" stroke="#B8A880" stroke-width="0.5" opacity="0.6"/>
  <!-- Gulf states -->
  <path d="M163.5 156.2 L156.3 141.3 L195.7 128.7 L202.4 114.0 L200.7 105.1 L210.5 102.1 L219.5 94.5 L227.2 92.6 L247.9 94.2 L254.1 97.3 L262.6 95.2 L274.1 109.7 L285.8 113.4 L287.1 120.5 L278.2 124.7 L274.1 134.2 L286.4 145.7 L308.2 152.4 L317.3 161.6 L314.4 170.5 L320.1 170.5 L320.3 176.9 L330.1 183.3 L319.6 182.7 L307.6 181.7 L294.5 193.4 L261.5 192.4 L211.3 168.0 L184.9 159.4 L163.5 156.2 Z" fill="#C9B99A" stroke="#B8A880" stroke-width="0.5" opacity="0.85"/>
  <path d="M319.6 182.7 L323.3 188.1 L321.7 190.9 L327.4 200.0 L314.8 200.4 L310.4 194.6 L294.5 193.4 L307.6 181.7 L319.6 182.7 Z" fill="#C9B99A" stroke="#B8A880" stroke-width="0.5" opacity="0.85"/>
  <path d="M448.1 271.1 L448.6 266.2 L453.8 261.2 L453.8 256.2 L461.9 253.8 L458.7 252.1 L460.2 244.2 L469.3 244.2 L477.3 252.5 L487.2 256.9 L500.2 258.5 L510.7 260.7 L518.7 267.7 L523.5 271.7 L529.9 273.2 L529.9 276.0 L523.4 283.2 L520.6 286.6 L513.1 290.5 L506.5 298.8 L498.4 298.2 L494.7 301.1 L491.9 307.3 L494.0 315.4 L492.4 316.9 L484.2 316.8 L473.0 321.4 L471.3 327.3 L467.3 329.9 L456.2 329.8 L449.2 332.9 L449.3 337.8 L440.7 341.2 L430.9 340.0 L419.0 344.1 L410.8 344.8 L405.0 336.3 L391.1 316.2 L444.4 304.1 L456.3 279.7 L448.1 271.1 Z" fill="#C9B99A" stroke="#B8A880" stroke-width="0.5" opacity="0.85"/>
  <path d="M466.8 234.6 L463.5 230.4 L468.6 226.3 L470.9 227.3 L469.2 232.3 L466.8 234.6 Z" fill="#C9B99A" stroke="#B8A880" stroke-width="0.5" opacity="0.85"/>
  <path d="M369.9 246.2 L368.8 237.4 L373.6 231.0 L378.5 229.7 L383.8 233.5 L384.1 240.6 L380.2 247.8 L375.3 248.6 L369.9 246.2 Z" fill="#C9B99A" stroke="#B8A880" stroke-width="0.5" opacity="0.85"/>
  <path d="M88.1 190.3 L107.9 192.2 L115.6 188.4 L119.8 184.1 L133.4 182.4 L136.3 178.3 L142.2 176.2 L124.5 164.1 L160.1 158.0 L163.5 156.2 L184.9 159.4 L211.3 168.0 L261.5 192.4 L294.5 193.4 L310.4 194.6 L314.8 200.4 L327.4 200.0 L334.4 210.5 L343.1 213.3 L346.1 217.6 L358.3 222.7 L359.3 227.7 L357.6 231.8 L359.8 235.9 L364.9 239.3 L367.3 243.2 L369.9 246.2 L375.3 248.6 L380.2 247.8 L383.6 252.4 L384.3 255.2 L391.1 267.6 L444.6 273.7 L448.1 271.1 L456.3 279.7 L444.4 304.1 L391.1 316.2 L339.9 320.9 L323.3 326.3 L310.5 339.1 L302.2 341.2 L297.7 337.1 L291.0 337.7 L273.7 336.5 L270.5 335.3 L250.0 335.6 L245.2 336.6 L237.9 333.5 L233.2 339.5 L235.0 344.6 L227.2 348.5 L224.9 343.3 L219.5 339.6 L218.1 334.8 L209.0 330.4 L199.5 320.2 L194.4 310.3 L182.2 301.9 L174.2 299.9 L162.4 288.3 L160.4 279.9 L161.2 272.7 L151.0 259.2 L142.7 254.4 L133.1 251.9 L127.2 245.0 L128.1 242.2 L123.2 235.9 L118.0 233.2 L111.1 224.1 L100.2 214.3 L91.2 206.0 L82.3 206.0 L85.1 199.4 L85.9 195.1 L88.1 190.3 Z" fill="#C9B99A" stroke="#B8A880" stroke-width="0.5" opacity="0.85"/>
  <path d="M383.6 252.4 L386.8 251.8 L387.5 255.2 L401.4 253.3 L416.1 253.6 L426.8 253.9 L439.0 245.7 L452.2 237.9 L463.5 230.4 L466.8 234.6 L469.3 244.2 L460.2 244.2 L458.7 252.1 L461.9 253.8 L453.8 256.2 L453.8 261.2 L448.6 266.2 L448.1 271.1 L444.6 273.7 L391.1 267.6 L384.3 255.2 L383.6 252.4 Z" fill="#C9B99A" stroke="#B8A880" stroke-width="0.5" opacity="0.85"/>
  <!-- Iran -->
  <path d="M330.1 183.3 L320.3 176.9 L320.1 170.5 L314.4 170.5 L317.3 161.6 L308.2 152.4 L286.4 145.7 L274.1 134.2 L278.2 124.7 L287.1 120.5 L285.8 113.4 L274.1 109.7 L262.6 95.2 L252.9 85.5 L256.4 81.7 L250.8 67.8 L263.0 64.3 L265.8 68.9 L274.8 74.5 L287.0 76.1 L293.5 75.8 L314.4 66.8 L321.0 65.9 L326.3 69.5 L320.2 75.5 L331.3 81.8 L335.7 81.2 L341.3 90.2 L358.2 92.7 L370.5 98.8 L395.8 100.9 L423.6 97.7 L425.3 94.9 L440.9 92.5 L453.5 85.6 L465.4 85.9 L473.2 83.7 L485.8 84.8 L505.6 90.9 L519.7 92.3 L540.1 103.0 L553.3 103.5 L554.8 113.7 L547.6 128.9 L542.7 137.7 L550.5 139.5 L542.9 146.2 L548.7 155.9 L550.1 163.6 L563.5 165.7 L565.0 173.5 L548.9 184.5 L557.7 190.9 L564.8 198.2 L581.8 203.6 L582.3 214.3 L590.8 216.3 L592.3 221.9 L566.7 228.2 L560.0 242.3 L526.5 238.6 L507.1 235.8 L487.1 234.3 L479.5 219.3 L471.0 217.2 L457.3 219.3 L439.4 225.2 L417.7 221.2 L399.7 211.9 L382.6 208.4 L370.7 196.8 L357.6 180.6 L348.1 182.6 L336.7 178.6 L330.1 183.3 Z" fill="#B5A080" stroke="#9A8060" stroke-width="1"/>
  <circle cx="471" cy="225" r="18" fill="none" stroke="#C24234" stroke-width="2.5" opacity="0.8"/>
  <circle cx="471" cy="225" r="28" fill="none" stroke="#C24234" stroke-width="1.5" opacity="0.4"/>
  <circle cx="471" cy="225" r="38" fill="none" stroke="#C24234" stroke-width="1" opacity="0.2"/>
  <circle cx="41" cy="176" r="8" fill="#E9B24E" opacity="0.8"/>
  <circle cx="41" cy="176" r="14" fill="none" stroke="#E9B24E" stroke-width="1.5" opacity="0.4"/>
  <circle cx="236" cy="395" r="8" fill="#E9B24E" opacity="0.8"/>
  <circle cx="236" cy="395" r="14" fill="none" stroke="#E9B24E" stroke-width="1.5" opacity="0.4"/>
  <g fill="none" stroke="#2E3A48" stroke-width="2" stroke-linecap="round" opacity="0.5">
    <path d="M 471,225 C 618,255 724,304 764,304" stroke-dasharray="6 5"/>
    <path d="M 471,225 C 411,225 218,207 178,207" stroke-dasharray="6 5"/>
    <path d="M 471,225 C 441,285 266,355 236,395" stroke-dasharray="6 5"/>
    <path d="M 41,176 C 41,136 36,105 36,85" stroke-dasharray="6 5"/>
  </g>
  <g font-family="-apple-system,sans-serif" font-size="11" fill="#5A4A3A" font-weight="600" opacity="0.7">
    <text x="391" y="146">IRAN</text>
    <text x="240" y="140">IRAQ</text>
    <text x="18" y="219">EGYPT</text>
    <text x="89" y="61">TURKEY</text>
    <text x="658" y="207">PAKISTAN</text>
    <text x="213" y="268">SAUDI</text>
    <text x="213" y="286" font-size="10">ARABIA</text>
    <text x="444" y="249" font-size="9" fill="#6A4A3A">UAE</text>
    <text x="373" y="237" font-size="9" fill="#6A4A3A">QATAR</text>
    <text x="311" y="185" font-size="9" fill="#6A4A3A">KUWAIT</text>
    <text x="480" y="280" font-size="9" fill="#6A4A3A">OMAN</text>
  </g>
  <g font-family="-apple-system,sans-serif" font-size="9" fill="#C24234" font-weight="600">
    <text x="489" y="213">Strait of</text>
    <text x="489" y="224">Hormuz</text>
  </g>
  <g font-family="-apple-system,sans-serif" font-size="9" fill="#8A6A20" font-weight="600">
    <text x="53" y="164">Suez</text>
    <text x="258" y="401">Bab el-</text>
    <text x="258" y="412">Mandeb</text>
  </g>
  <g transform="translate(20,15)">
    <rect x="0" y="0" width="220" height="55" fill="#FFFFFF" opacity="0.85" rx="6"/>
    <text x="14" y="22" font-family="-apple-system,sans-serif" font-size="11" fill="#5A4A3A" font-weight="700" letter-spacing="1">MIDDLE EAST MONITOR</text>
    <text x="14" y="42" font-family="-apple-system,sans-serif" font-size="13" fill="#2E3A48" font-weight="500">95+ indicator series · 4 pages</text>
  </g>
  <g transform="translate(560,380)">
    <rect x="0" y="0" width="220" height="50" fill="#FFFFFF" opacity="0.85" rx="6"/>
    <circle cx="20" cy="25" r="6" fill="#E9B24E"/>
    <text x="34" y="22" font-family="-apple-system,sans-serif" font-size="10" fill="#5A4A3A" font-weight="600">AI-GENERATED NARRATIVES</text>
    <text x="34" y="37" font-family="-apple-system,sans-serif" font-size="11" fill="#2E3A48" font-weight="500">Sonnet 4.6 · trigger-gated</text>
  </g>
</svg>